<svg width="128" height="128" viewBox="0 0 128 128" fill="none" xmlns="http://www.w3.org/2000/svg">
<path d="M36.2741 20.4112C36.1004 20.6459 36.057 20.8806 36.1872 20.998C36.2741 21.1153 36.4912 20.9198 36.6214 20.5677C36.9253 19.9027 36.6648 19.7854 36.2741 20.4112Z" fill="white"/>
<path d="M35.1886 25.8094C33.4086 28.5867 31.9758 31.0119 32.0192 31.1684C32.0626 31.3639 33.4954 33.75 35.2755 36.4882L38.4449 41.456L44.8272 41.5733L51.2095 41.6907L54.5526 36.5273L57.8522 31.3248L56.1156 28.704C55.1604 27.2176 53.6408 24.8706 52.7291 23.4233L51.0358 20.8025H44.7404L38.4449 20.7634L35.1886 25.8094ZM53.5106 26.2006C55.117 28.6258 56.4629 30.699 56.4629 30.8163C56.4629 30.8945 53.9881 30.8945 50.949 30.8554L45.435 30.7381L42.5261 26.4353C40.9197 24.0492 39.5737 21.976 39.5737 21.8195C39.5303 21.6631 42.0051 21.5848 45.0443 21.6239L50.5582 21.7413L53.5106 26.2006ZM42.6563 28.0782L44.7838 31.2857L42.2222 35.3147C40.8328 37.5443 39.5737 39.6957 39.4001 40.0869C39.1396 40.6736 38.4883 39.9696 36.2306 36.41C34.6676 33.9847 33.2783 31.7551 33.148 31.4813C33.0612 31.2075 34.2769 28.9778 35.8833 26.4744L38.7922 21.9369L39.6606 23.4233C40.1382 24.2056 41.4841 26.3179 42.6563 28.0782ZM56.4629 31.8724C56.4629 31.9507 55.2038 33.9847 53.6408 36.3708L50.8187 40.6736L45.3916 40.791C42.3958 40.8692 39.9645 40.8301 39.9645 40.7519C39.9645 40.6736 41.1802 38.6005 42.6998 36.1753L45.3916 31.7551L50.949 31.716C53.9881 31.716 56.4629 31.7942 56.4629 31.8724Z" fill="white"/>
<path d="M48.4743 22.9929C47.9967 23.4623 48.2138 24.5967 48.865 25.0661C49.7768 25.7311 50.5583 25.027 50.2109 23.9708C49.907 23.1494 48.9084 22.6017 48.4743 22.9929ZM49.6899 24.0882C49.8202 24.4011 49.7334 24.6749 49.5597 24.6749C49.3426 24.6749 49.0821 24.4011 48.9084 24.0882C48.7782 23.7752 48.865 23.5014 49.0387 23.5014C49.2558 23.5014 49.5163 23.7752 49.6899 24.0882Z" fill="white"/>
<path d="M45.6087 27.8434C45.6087 28.6258 46.5205 29.7601 47.1283 29.7601C47.9098 29.7601 47.9966 28.5475 47.2585 27.8825C46.6073 27.2958 45.6087 27.2567 45.6087 27.8434ZM47.1283 28.5866C47.2585 28.7822 47.1717 28.9778 46.9546 28.9778C46.6941 28.9778 46.477 28.7822 46.477 28.5866C46.477 28.3519 46.5639 28.1955 46.6507 28.1955C46.781 28.1955 46.998 28.3519 47.1283 28.5866Z" fill="white"/>
<path d="M38.3581 25.7312C37.6634 25.9659 37.62 28.039 38.2279 28.3911C38.8791 28.7431 39.9645 27.8826 39.9645 27.022C39.9645 26.2006 39.0962 25.4965 38.3581 25.7312ZM39.0962 27.1002C39.0962 27.7261 38.9659 27.8435 38.6186 27.5305C38.3581 27.2958 38.2713 26.9047 38.4015 26.67C38.8791 26.005 39.0962 26.1614 39.0962 27.1002Z" fill="white"/>
<path d="M34.9716 30.9727C34.5809 32.0289 35.7965 33.2806 36.5346 32.6156C37.1859 32.0289 36.8385 30.386 35.9702 30.2295C35.536 30.1513 35.1453 30.4642 34.9716 30.9727ZM36.4912 31.5595C36.4912 31.8724 36.3175 32.1071 36.057 32.1071C35.84 32.1071 35.6229 31.755 35.6229 31.2856C35.6229 30.8554 35.84 30.6207 36.057 30.738C36.3175 30.8554 36.4912 31.2465 36.4912 31.5595Z" fill="white"/>
<path d="M40.5724 30.6989C40.1816 31.6377 40.7026 32.4983 41.7012 32.4983C42.4393 32.4983 42.613 32.3027 42.4827 31.4421C42.3525 30.2295 41.0065 29.721 40.5724 30.6989ZM41.571 31.7942C41.4407 32.068 41.3539 31.8724 41.3539 31.3248C41.3539 30.7772 41.4407 30.5816 41.571 30.8163C41.6578 31.0901 41.6578 31.5595 41.571 31.7942Z" fill="white"/>
<path d="M38.0976 34.7279C37.5766 35.1973 37.7937 36.7228 38.4015 36.9184C39.2698 37.2313 40.0948 36.2143 39.7474 35.2364C39.4869 34.4541 38.662 34.2194 38.0976 34.7279ZM39.0962 35.6667C39.0962 36.0969 38.9225 36.3708 38.662 36.2143C38.4449 36.0969 38.3581 35.7449 38.5318 35.432C38.8357 34.6105 39.0962 34.6888 39.0962 35.6667Z" fill="white"/>
<path d="M46.1731 33.6717C45.6087 34.415 45.8258 35.6276 46.5205 35.6276C46.6941 35.6276 47.1717 35.2364 47.519 34.767C47.9966 34.1411 48.0835 33.7891 47.6927 33.3979C47.0849 32.6938 46.781 32.7721 46.1731 33.6717ZM46.998 34.5323C46.6941 34.8061 46.477 34.8452 46.477 34.6105C46.477 34.3758 46.6073 34.0629 46.781 33.9456C46.9112 33.7891 47.1717 33.75 47.302 33.8673C47.3888 33.9847 47.2585 34.2976 46.998 34.5323Z" fill="white"/>
<path d="M51.2963 33.75C51.0792 34.3367 51.0792 34.8453 51.3832 35.1973C51.7739 35.6276 51.991 35.5494 52.6423 34.8844C53.4672 33.9456 53.2501 32.8894 52.2949 32.8894C51.9476 32.8894 51.5134 33.2806 51.2963 33.75ZM52.5554 34.0238C52.5554 34.2585 52.3817 34.5323 52.1212 34.6497C51.9042 34.767 51.6871 34.6106 51.6871 34.2976C51.6871 33.9456 51.9042 33.6718 52.1212 33.6718C52.3817 33.6718 52.5554 33.8282 52.5554 34.0238Z" fill="white"/>
<path d="M43.3945 38.4048C43.0905 38.9916 43.0471 39.3436 43.3945 39.6565C44.0023 40.2042 45.1745 39.3045 45.1745 38.3266C45.1745 37.3096 44.0023 37.3878 43.3945 38.4048ZM44.393 38.8351C44.0891 39.1089 43.872 39.148 43.872 38.9133C43.872 38.6786 44.0023 38.3657 44.176 38.2484C44.3062 38.0919 44.5667 38.0528 44.697 38.1701C44.7838 38.2875 44.6535 38.6004 44.393 38.8351Z" fill="white"/>
<path d="M48.9518 37.8572C48.3874 38.3658 48.6479 39.9304 49.2991 39.9304C49.907 39.9304 50.8187 38.796 50.8187 38.0137C50.8187 37.5443 49.386 37.427 48.9518 37.8572ZM49.7767 39.0307C49.3426 39.4219 48.9518 38.8352 49.3426 38.3266C49.6031 37.8964 49.6899 37.8964 49.8636 38.3266C49.9504 38.6005 49.907 38.9134 49.7767 39.0307Z" fill="white"/>
<path d="M70.6168 22.0151C70.2695 22.5236 68.6196 24.9879 66.9264 27.5305L63.8872 32.1853L66.2317 35.5494C67.5342 37.427 70.9207 42.4339 73.6994 46.6584L78.8226 54.4035H84.5971C87.7231 54.4035 90.3281 54.4817 90.3281 54.56C90.3281 54.6382 89.2861 56.242 88.027 58.1587C86.7679 60.0754 85.2483 62.3832 84.7273 63.2829L83.6853 64.8867L87.1152 70.2065L90.5452 75.5264H96.8406H103.179L106.653 70.2065L110.17 64.8476L106.653 59.6451L103.136 54.4426L97.3182 54.4035C91.8043 54.4035 91.5438 54.3644 92.1516 53.6994C93.5409 52.2912 98.6207 44.0767 98.4036 43.6074C98.1431 42.9815 86.2903 24.6359 84.8576 22.6018L83.8155 21.1545H77.5201C71.4852 21.1545 71.2247 21.1936 70.6168 22.0151ZM87.1152 27.5305L90.6754 33.085L85.1615 33.2024C81.0369 33.2806 79.6041 33.2024 79.3436 32.8112C79.1699 32.5374 77.4767 29.9557 75.6098 27.1002L72.1798 21.9368H77.8674L83.5985 21.976L87.1152 27.5305ZM75.3058 28.0781C77.1728 30.9336 78.6055 33.398 78.5187 33.5935C78.2148 34.3368 72.3969 43.0597 72.3101 42.9815C72.0496 42.7077 66.1015 33.7891 65.6239 32.9677C65.016 31.9898 64.9292 32.1853 68.7499 26.3179C70.1827 24.1274 71.4852 22.4454 71.6588 22.6018C71.7891 22.7583 73.4389 25.2226 75.3058 28.0781ZM91.6306 34.3368C91.6306 34.5323 92.8897 36.5664 94.4527 38.9134C96.0157 41.2604 97.2748 43.2553 97.2748 43.3335C97.2748 43.3727 94.8 43.4509 91.7174 43.4509H86.2035L83.0775 38.7569L79.9949 34.0629H85.8127C89.0256 34.0629 91.6306 34.1803 91.6306 34.3368ZM82.7301 39.6175L85.4654 43.842L82.7301 48.0275C81.2105 50.3745 79.7778 52.4868 79.5607 52.7997C79.3002 53.23 78.345 52.0956 76.0439 48.5751L72.8745 43.7638L76.0439 39.0307C78.3884 35.5102 79.3002 34.4541 79.5607 34.8453C79.7778 35.1582 81.2105 37.3096 82.7301 39.6175ZM97.1879 44.5461C97.1445 44.7026 95.7986 46.8149 94.2356 49.2401L91.4135 53.582L85.8561 53.6994C82.7735 53.7776 80.2119 53.7776 80.1685 53.6994C80.0817 53.6603 81.4276 51.5089 83.1209 48.9272L86.2035 44.2332H91.7608C94.8434 44.2332 97.2748 44.3897 97.1879 44.5461ZM105.263 59.2148C106.696 61.4053 108.129 63.5176 108.476 63.8697C109.084 64.5346 108.824 64.5738 103.483 64.5738H97.8392L94.7132 59.9189C93.0199 57.3372 91.6306 55.1858 91.6306 55.1076C91.6306 55.0294 94.1053 55.0294 97.1445 55.1076L102.702 55.2249L105.263 59.2148ZM93.8014 59.958C95.3644 62.305 96.6669 64.4955 96.7538 64.7302C96.8406 65.004 95.5381 67.2728 93.8883 69.8154L90.8925 74.392L87.8099 69.6589L84.7273 64.9258L87.6362 60.271C89.2427 57.6893 90.632 55.6161 90.7622 55.6161C90.8925 55.6161 92.2384 57.5719 93.8014 59.958ZM108.476 65.669C108.433 65.8646 107.087 67.9769 105.567 70.363L102.745 74.7049L97.1879 74.8223C94.1488 74.9005 91.6306 74.9005 91.6306 74.8614C91.6306 74.7832 92.195 73.9226 92.8897 72.9056C93.5409 71.8494 94.9303 69.7371 95.9289 68.1725L97.7524 65.3561H103.179C106.175 65.3561 108.563 65.5126 108.476 65.669Z" fill="white"/>
<path d="M81.6448 25.34C81.6448 26.2005 82.4263 27.022 83.2946 27.022C83.6854 27.022 83.8156 26.6699 83.7288 25.9267C83.5551 24.6359 81.6448 24.0882 81.6448 25.34ZM83.1644 26.1614C82.817 26.4743 82.0789 25.7702 82.3394 25.3791C82.5131 25.1444 82.7302 25.1835 82.9907 25.4964C83.1644 25.7702 83.2512 26.0832 83.1644 26.1614Z" fill="white"/>
<path d="M79.2568 28.5865C78.8226 29.2124 79.8646 30.5424 80.7764 30.5424C81.7315 30.5424 81.8618 30.073 81.2105 28.9386C80.7329 28.1563 79.6909 27.9607 79.2568 28.5865ZM80.7764 29.6036C80.7764 29.9165 80.6027 30.073 80.3422 29.9556C80.1251 29.8383 79.908 29.5644 79.908 29.3297C79.908 29.1342 80.1251 28.9777 80.3422 28.9777C80.6027 28.9777 80.7764 29.2515 80.7764 29.6036Z" fill="white"/>
<path d="M70.9641 26.7481C70.5734 27.726 70.9641 29.1733 71.6154 29.1733C72.5706 29.1733 73.2652 27.9216 72.7008 27.1393C72.093 26.2396 71.268 26.044 70.9641 26.7481ZM72.093 27.8043C72.093 28.2345 71.9193 28.5866 71.6588 28.5866C71.4417 28.5866 71.2246 28.2345 71.2246 27.8043C71.2246 27.374 71.4417 27.0219 71.6588 27.0219C71.9193 27.0219 72.093 27.374 72.093 27.8043Z" fill="white"/>
<path d="M67.7947 31.4812C67.0566 32.2636 67.621 33.75 68.5328 33.5935C69.0104 33.5153 69.2709 33.085 69.2709 32.3418C69.2709 31.051 68.5762 30.6207 67.7947 31.4812ZM69.0538 32.2636C69.0538 32.5765 68.8801 32.9677 68.6196 33.085C68.4025 33.2024 68.1854 32.9677 68.1854 32.5374C68.1854 32.068 68.4025 31.7159 68.6196 31.7159C68.8801 31.7159 69.0538 31.9506 69.0538 32.2636Z" fill="white"/>
<path d="M73.9165 31.5595C73.3521 32.4983 73.7862 33.6718 74.7414 33.6718C75.7834 33.6718 76.1307 33.0459 75.8268 31.8724C75.5229 30.7771 74.4809 30.6207 73.9165 31.5595ZM75.1321 32.3027C75.1321 32.6156 74.9585 32.8894 74.698 32.8894C74.4809 32.8894 74.2638 32.6156 74.2638 32.3027C74.2638 31.9897 74.4809 31.7159 74.698 31.7159C74.9585 31.7159 75.1321 31.9897 75.1321 32.3027Z" fill="white"/>
<path d="M70.9642 36.1752C70.53 37.1923 70.9642 38.1702 71.8759 38.1702C72.5706 38.1702 72.7443 37.8964 72.7443 36.9967C72.7443 35.7058 71.4418 35.08 70.9642 36.1752ZM72.3101 36.762C72.4404 36.9576 72.3535 37.2314 72.093 37.3878C71.8759 37.5052 71.6588 37.3487 71.6588 37.0358C71.6588 36.3317 71.9193 36.2143 72.3101 36.762Z" fill="white"/>
<path d="M87.8968 38.1702C87.5929 38.8743 88.4178 39.9304 89.2862 39.9304C90.0243 39.9304 90.0677 38.6787 89.373 38.0528C88.6783 37.427 88.2007 37.4661 87.8968 38.1702ZM89.2428 38.7569C89.373 38.9525 89.2862 39.1481 89.0691 39.1481C88.8086 39.1481 88.5915 38.9525 88.5915 38.7569C88.5915 38.5222 88.6783 38.3658 88.7652 38.3658C88.8954 38.3658 89.1125 38.5222 89.2428 38.7569Z" fill="white"/>
<path d="M78.4753 38.2092C78.3016 38.3657 78.1714 38.9915 78.1714 39.6174C78.1714 40.4388 78.3885 40.7126 79.0397 40.7126C79.5173 40.7126 80.0383 40.4388 80.212 40.0868C80.6461 39.0306 79.2568 37.5442 78.4753 38.2092ZM79.4739 39.6174C79.4739 40.2432 79.3436 40.3606 78.9963 40.0477C78.7358 39.813 78.649 39.4218 78.7792 39.1871C79.2568 38.5221 79.4739 38.6786 79.4739 39.6174Z" fill="white"/>
<path d="M75.3492 43.0597C74.8282 43.842 75.5229 45.4849 76.3478 45.3284C77.3464 45.172 77.3898 42.9423 76.3478 42.7467C75.9571 42.6685 75.5229 42.825 75.3492 43.0597ZM76.5649 44.0376C76.261 44.859 76.0005 44.7808 76.0005 43.8029C76.0005 43.3726 76.1742 43.0988 76.4347 43.2553C76.6518 43.3726 76.7386 43.7247 76.5649 44.0376Z" fill="white"/>
<path d="M81.0804 43.4509C80.9501 43.8421 81.1238 44.5071 81.4711 44.8982C82.0355 45.5632 82.1224 45.5632 82.6868 44.8982C83.4683 43.9986 83.0775 42.6686 82.0789 42.6686C81.6448 42.6686 81.2106 43.0206 81.0804 43.4509ZM82.5131 43.8421C82.5131 44.2724 82.3394 44.6244 82.0789 44.6244C81.8619 44.6244 81.6448 44.2724 81.6448 43.8421C81.6448 43.4118 81.8619 43.0598 82.0789 43.0598C82.3394 43.0598 82.5131 43.4118 82.5131 43.8421Z" fill="white"/>
<path d="M78.4753 47.2451C78.3016 47.3625 78.1714 47.9883 78.1714 48.6142C78.1714 49.4357 78.3885 49.7095 78.9963 49.7095C80.1251 49.7095 80.4725 49.1227 80.1686 47.9101C79.9081 47.0104 79.0831 46.6584 78.4753 47.2451ZM79.4739 48.6142C79.4739 49.2401 79.3436 49.3574 78.9963 49.0445C78.7358 48.8098 78.649 48.4186 78.7792 48.1839C79.2568 47.519 79.4739 47.6754 79.4739 48.6142Z" fill="white"/>
<path d="M87.1586 45.837C86.3337 46.2673 86.16 47.5581 86.8547 47.9493C87.506 48.3013 88.5914 47.4016 88.5914 46.5411C88.5914 45.6414 88.1138 45.3676 87.1586 45.837ZM87.723 46.7758C87.723 47.0887 87.5494 47.3625 87.2889 47.3625C87.0718 47.3625 86.985 47.0887 87.1152 46.7758C87.2889 46.4629 87.4625 46.189 87.5494 46.189C87.6362 46.189 87.723 46.4629 87.723 46.7758Z" fill="white"/>
<path d="M92.3253 46.15C91.9345 46.5412 91.7174 47.1279 91.8911 47.5191C92.2384 48.3406 92.8897 48.1841 93.6712 47.0888C94.1488 46.4238 94.1488 46.2283 93.6712 45.8371C93.1936 45.5242 92.8897 45.5633 92.3253 46.15ZM93.0199 47.0497C92.716 47.3235 92.4989 47.3626 92.4989 47.1279C92.4989 46.8932 92.6292 46.5803 92.8028 46.463C92.9331 46.3065 93.1936 46.2674 93.3238 46.3847C93.4107 46.5021 93.2804 46.815 93.0199 47.0497Z" fill="white"/>
<path d="M89.4597 48.9272C89.4597 49.1228 89.6768 49.3184 89.9373 49.3184C90.1544 49.3184 90.2412 49.1228 90.111 48.9272C89.9807 48.6925 89.7636 48.536 89.6334 48.536C89.5466 48.536 89.4597 48.6925 89.4597 48.9272Z" fill="white"/>
<path d="M84.3366 50.5699C83.6419 51.1958 83.6853 52.4475 84.38 52.4475C85.2049 52.4475 85.9864 51.6261 85.9864 50.8046C85.9864 49.9832 85.1181 49.8658 84.3366 50.5699ZM85.3352 51.274C85.2049 51.4696 84.8576 51.6652 84.6405 51.6652C84.38 51.6652 84.3366 51.4696 84.4668 51.274C84.5971 51.0393 84.9444 50.8829 85.1615 50.8829C85.422 50.8829 85.4654 51.0393 85.3352 51.274Z" fill="white"/>
<path d="M89.4598 50.6873C88.8085 51.3914 89.1993 52.4475 90.0676 52.4475C90.6755 52.4475 91.1965 51.6261 91.1965 50.6482C91.1965 49.9441 90.1545 49.9441 89.4598 50.6873ZM90.415 51.3522C90.111 51.6261 89.894 51.6652 89.894 51.4305C89.894 51.1958 90.0242 50.8829 90.1979 50.7655C90.3281 50.609 90.5886 50.5699 90.7189 50.6873C90.8057 50.8046 90.6755 51.1176 90.415 51.3522Z" fill="white"/>
<path d="M100.401 57.5718C100.574 58.7453 101.92 59.4885 102.485 58.7453C103.006 57.9239 102.224 56.7504 101.139 56.7504C100.488 56.7504 100.271 56.946 100.401 57.5718ZM102.051 58.4324C102.051 58.628 101.877 58.628 101.616 58.5106C101.399 58.3933 101.182 57.963 101.182 57.6109C101.182 57.0242 101.269 57.0242 101.616 57.5327C101.834 57.8456 102.051 58.2759 102.051 58.4324Z" fill="white"/>
<path d="M98.0129 60.9359C97.6656 61.4835 98.5339 63.009 99.2286 63.009C100.14 63.009 100.531 61.9529 99.8798 61.2488C99.3154 60.6229 98.3168 60.4665 98.0129 60.9359ZM99.4457 61.8355C99.4457 62.0311 99.272 62.2267 99.0115 62.2267C98.7944 62.2267 98.5773 62.0311 98.5773 61.8355C98.5773 61.6008 98.7944 61.4444 99.0115 61.4444C99.272 61.4444 99.4457 61.6008 99.4457 61.8355Z" fill="white"/>
<path d="M90.1978 59.3712C89.6334 59.8406 89.8939 61.4835 90.5886 61.7182C91.5872 62.0311 92.2384 61.2488 91.8911 60.1144C91.6306 59.1365 90.8057 58.7845 90.1978 59.3712ZM91.1964 60.7403C91.1964 61.4444 91.1096 61.5226 90.8057 61.0532C90.5452 60.7403 90.5017 60.3491 90.5886 60.1927C90.9793 59.645 91.1964 59.8406 91.1964 60.7403Z" fill="white"/>
<path d="M87.3324 63.9479C86.5509 64.7694 86.9416 65.9429 87.9402 65.9429C88.9822 65.9429 89.3296 64.5347 88.4612 63.8697C87.9836 63.4785 87.7231 63.5177 87.3324 63.9479ZM88.2442 65.4344C87.8534 65.7864 87.7231 65.7082 87.7231 64.965C87.7231 64.2217 87.8534 64.1435 88.2442 64.4956C88.6349 64.8476 88.6349 65.0823 88.2442 65.4344Z" fill="white"/>
<path d="M92.9765 63.9479C92.195 64.8084 92.5858 65.9428 93.7146 66.0601C94.4961 66.1775 94.6698 66.021 94.6698 65.2387C94.6698 63.9479 93.6712 63.2046 92.9765 63.9479ZM93.6712 65.4343C93.5409 65.7081 93.4541 65.5125 93.4541 64.9649C93.4541 64.4173 93.5409 64.2217 93.6712 64.4564C93.758 64.7302 93.758 65.1996 93.6712 65.4343Z" fill="white"/>
<path d="M90.3281 66.1384C89.9374 66.3731 89.8939 66.5295 90.1979 66.5295C90.4584 66.5295 90.8491 66.334 90.9794 66.1384C91.3267 65.669 91.153 65.669 90.3281 66.1384Z" fill="white"/>
<path d="M89.8939 69.2285C89.8939 70.6367 90.632 71.1452 91.5003 70.3238C92.3687 69.5806 91.8477 68.0941 90.7188 68.0941C90.111 68.0941 89.8939 68.3679 89.8939 69.2285ZM91.1964 69.4632C91.1964 69.7761 91.0228 70.0499 90.7623 70.0499C90.5452 70.0499 90.3281 69.7761 90.3281 69.4632C90.3281 69.1503 90.5452 68.8765 90.7623 68.8765C91.0228 68.8765 91.1964 69.1503 91.1964 69.4632Z" fill="white"/>
<path d="M97.9694 68.3289C97.4918 69.4242 97.7089 70.05 98.5338 70.05C99.4021 70.05 100.14 68.7983 99.6626 68.0942C99.2719 67.5075 98.2733 67.6248 97.9694 68.3289ZM99.0114 68.8766C99.0114 69.0721 98.7943 69.2677 98.5338 69.2677C98.3167 69.2677 98.2299 69.0721 98.3601 68.8766C98.4904 68.6419 98.7075 68.4854 98.8377 68.4854C98.9246 68.4854 99.0114 68.6419 99.0114 68.8766Z" fill="white"/>
<path d="M100.748 72.0059C100.227 72.9056 100.488 73.5706 101.399 73.5706C102.138 73.5706 103.049 72.1624 102.702 71.6147C102.268 70.9498 101.226 71.1845 100.748 72.0059ZM101.877 72.6709C101.443 73.062 101.052 72.4753 101.443 71.9668C101.703 71.5365 101.79 71.5365 101.964 71.9668C102.051 72.2406 102.007 72.5535 101.877 72.6709Z" fill="white"/>
<path d="M19.7323 45.2892C18.3863 47.4015 16.9102 49.6311 16.5194 50.2961L15.7379 51.4696L19.081 56.5547L22.4241 61.6399L28.9366 61.7572L35.4492 61.8354L38.5752 56.7894L41.7446 51.7043L38.4015 46.6192L35.0584 41.4949H28.6327H22.207L19.7323 45.2892ZM37.2727 46.3845C38.7489 48.6141 40.0514 50.6481 40.1816 50.9611C40.3553 51.3522 39.3567 51.4305 34.7979 51.3522L29.1971 51.2349L26.3316 46.7756C24.7686 44.3113 23.4661 42.2772 23.4661 42.199C23.4661 42.1208 25.9843 42.1208 29.0235 42.199L34.6243 42.3163L37.2727 46.3845ZM24.7686 45.8759C25.854 47.6362 27.1566 49.6702 27.6776 50.3743L28.6327 51.6261L25.6804 56.1636L22.728 60.662L19.8625 56.2418C18.2561 53.7775 16.9536 51.6261 16.9536 51.4696C16.9536 51.0393 22.3373 42.6684 22.5978 42.6684C22.728 42.6684 23.6832 44.1157 24.7686 45.8759ZM40.3119 52.3302C40.2684 52.5257 39.0094 54.5207 37.5766 56.8285L34.9716 61.014L29.1537 61.0531H23.3793L23.9871 60.1534C24.3345 59.684 25.637 57.65 26.8961 55.6551L29.1971 52.0563H34.8413C37.9239 52.0563 40.3987 52.1737 40.3119 52.3302Z" fill="white"/>
<path d="M26.5053 43.9594C26.5053 44.2723 26.8961 44.82 27.3736 45.2111C28.1552 45.837 28.242 45.837 28.5025 45.2503C28.6327 44.8982 28.6762 44.3506 28.5025 44.0376C28.1986 43.2944 26.5053 43.2553 26.5053 43.9594ZM28.242 44.6635C28.242 44.8982 28.0683 44.9373 27.8078 44.82C27.5907 44.7026 27.3736 44.3897 27.3736 44.1941C27.3736 43.9594 27.5907 43.9203 27.8078 44.0376C28.0683 44.155 28.242 44.4679 28.242 44.6635Z" fill="white"/>
<path d="M32.1495 43.9985C32.1495 44.3114 32.4534 44.8591 32.8441 45.2111C33.7559 45.9934 34.5374 45.4458 34.1032 44.2723C33.7993 43.3335 32.1495 43.1379 32.1495 43.9985ZM33.6256 44.4288C33.7559 44.7417 33.6691 45.0155 33.452 45.0155C33.1915 45.0155 33.0178 44.7417 33.0178 44.4288C33.0178 44.1158 33.1046 43.842 33.1915 43.842C33.2783 43.842 33.452 44.1158 33.6256 44.4288Z" fill="white"/>
<path d="M33.0178 46.3455C33.0178 46.4238 33.3652 46.7367 33.7993 47.0105C34.4506 47.519 34.494 47.4799 33.9296 46.8541C33.3652 46.2282 33.0178 46.0326 33.0178 46.3455Z" fill="white"/>
<path d="M29.7181 48.3403C29.4142 49.0444 30.2391 50.1006 31.1075 50.1006C31.8455 50.1006 31.889 48.8489 31.1943 48.223C30.4996 47.5971 30.022 47.6362 29.7181 48.3403ZM31.064 48.9271C31.1943 49.1227 31.1075 49.3183 30.8904 49.3183C30.6299 49.3183 30.4128 49.1227 30.4128 48.9271C30.4128 48.6924 30.4996 48.5359 30.5865 48.5359C30.7167 48.5359 30.9338 48.6924 31.064 48.9271Z" fill="white"/>
<path d="M35.4058 48.1448C34.9282 48.8489 35.6663 50.1006 36.5346 50.1006C37.4898 50.1006 37.6634 48.9662 36.8385 48.223C36.1873 47.6363 35.7531 47.6363 35.4058 48.1448ZM36.4912 48.9271C36.4912 49.1227 36.4043 49.3183 36.3175 49.3183C36.1873 49.3183 35.9702 49.1227 35.8399 48.9271C35.7097 48.6924 35.7965 48.5359 36.0136 48.5359C36.2741 48.5359 36.4912 48.6924 36.4912 48.9271Z" fill="white"/>
<path d="M21.5992 46.9713C21.3387 47.871 22.2939 49.1618 22.9451 48.7706C23.249 48.6142 23.4661 47.9883 23.4661 47.3233C23.4661 46.4628 23.249 46.1889 22.6412 46.1889C22.207 46.1889 21.7294 46.541 21.5992 46.9713ZM23.0319 47.5971C23.0319 47.9101 22.8583 48.1448 22.5978 48.1448C22.3807 48.1448 22.1636 47.7927 22.1636 47.3233C22.1636 46.893 22.3807 46.6583 22.5978 46.7757C22.8583 46.893 23.0319 47.2842 23.0319 47.5971Z" fill="white"/>
<path d="M19.1678 50.8439C18.56 51.8218 19.0376 52.9171 19.9493 52.7606C20.3835 52.6824 20.644 52.2521 20.644 51.5089C20.644 50.1398 19.7757 49.7486 19.1678 50.8439ZM20.0796 52.1348C19.6888 52.4868 19.5586 52.4086 19.5586 51.6654C19.5586 50.9221 19.6888 50.8439 20.0796 51.196C20.4703 51.548 20.4703 51.7827 20.0796 52.1348Z" fill="white"/>
<path d="M24.6384 50.3354C24.4647 50.4919 24.3345 51.1177 24.3345 51.7436C24.3345 52.6042 24.5516 52.8389 25.2462 52.8389C25.9843 52.8389 26.1146 52.6433 25.9843 51.5871C25.8541 50.3745 25.2462 49.8269 24.6384 50.3354ZM25.637 51.7045C25.637 52.1348 25.4633 52.3695 25.2028 52.2521C24.9857 52.1348 24.7686 51.7436 24.7686 51.4307C24.7686 51.1177 24.9857 50.883 25.2028 50.883C25.4633 50.883 25.637 51.2351 25.637 51.7045Z" fill="white"/>
<path d="M21.8163 55.6551C21.9899 57.3371 23.249 57.4544 23.249 55.7724C23.249 54.951 23.0319 54.5598 22.4675 54.4816C21.8163 54.3643 21.686 54.5598 21.8163 55.6551ZM23.0319 55.7724C23.0319 56.0854 22.8583 56.3592 22.5978 56.3592C22.3807 56.3592 22.1636 56.0854 22.1636 55.7724C22.1636 55.4595 22.3807 55.1857 22.5978 55.1857C22.8583 55.1857 23.0319 55.4595 23.0319 55.7724Z" fill="white"/>
<path d="M29.9787 53.8167C29.3274 54.5208 29.7182 55.5769 30.5865 55.5769C31.368 55.5769 32.1061 54.4425 31.8456 53.6993C31.5851 53.0735 30.6299 53.1126 29.9787 53.8167ZM30.8904 54.9119C30.5431 55.2249 30.4128 55.1857 30.4128 54.7555C30.4128 53.9731 30.9772 53.4255 31.1943 54.0122C31.3246 54.2861 31.1509 54.6772 30.8904 54.9119Z" fill="white"/>
<path d="M35.1887 54.0122C34.6677 54.9119 34.9282 55.5769 35.8399 55.5769C36.578 55.5769 37.4898 54.1687 37.1425 53.6211C36.7083 52.9561 35.6663 53.1908 35.1887 54.0122ZM36.3175 54.6772C35.8834 55.0684 35.4926 54.4816 35.8834 53.9731C36.1439 53.5428 36.2307 53.5428 36.4044 53.9731C36.4912 54.2469 36.4478 54.5599 36.3175 54.6772Z" fill="white"/>
<path d="M27.5473 58.5498C27.1131 60.0362 27.9815 60.5838 28.8932 59.3712C29.284 58.7845 29.501 58.1586 29.3274 57.9239C28.8064 57.1807 27.8078 57.5327 27.5473 58.5498ZM28.3288 59.1756C28.0249 59.4494 27.8078 59.4885 27.8078 59.2538C27.8078 58.7062 28.3288 58.2368 28.6327 58.5106C28.7195 58.628 28.5893 58.9409 28.3288 59.1756Z" fill="white"/>
<path d="M33.1047 58.002C32.41 58.6279 32.4534 59.8796 33.1915 59.8796C34.0598 59.8796 34.8847 58.8235 34.5808 58.1194C34.2769 57.4153 33.7993 57.3762 33.1047 58.002ZM33.5388 59.1755C33.2349 59.4494 33.0178 59.4885 33.0178 59.2538C33.0178 58.7061 33.5388 58.2367 33.8427 58.5106C33.9296 58.6279 33.7993 58.9408 33.5388 59.1755Z" fill="white"/>
<path d="M67.8816 42.0819C67.8816 42.3948 68.0553 42.5513 68.2723 42.4339C68.4894 42.3166 68.5328 42.0428 68.4026 41.8472C68.0118 41.3387 67.8816 41.4169 67.8816 42.0819Z" fill="white"/>
<path d="M19.2981 42.7468L18.4732 43.6465L19.4718 42.9033C20.3835 42.1992 20.644 41.8862 20.2967 41.8862C20.2099 41.8862 19.7757 42.2774 19.2981 42.7468Z" fill="white"/>
<path d="M49.082 47.4409C47.0849 50.5311 44.0891 55.0686 42.4392 57.5329L39.4435 62.0313L40.3118 63.4004C40.746 64.1436 43.872 68.9549 47.2151 74.1183L53.25 83.428H59.6757C64.5384 83.428 66.2317 83.3106 66.6659 82.9195C66.9264 82.6065 69.9655 78.0299 73.3521 72.671L79.5607 63.0092L76.4347 58.1979C74.698 55.5771 71.6154 50.844 69.5314 47.6756L65.7975 41.8863H59.285H52.7725L49.082 47.4409ZM68.1854 47.0497C69.7485 49.4749 71.0944 51.5872 71.1378 51.7437C71.2246 51.9001 68.7499 52.0566 65.6673 52.0566H60.0665L56.9839 47.3626C55.2472 44.7809 53.8579 42.6295 53.8579 42.5513C53.8579 42.5122 56.4629 42.5122 59.6323 42.5904L65.3634 42.7078L68.1854 47.0497ZM58.9811 52.5651C58.8942 52.7998 57.5917 55.0294 56.0721 57.4155L53.3369 61.8357L50.2977 57.22C48.6044 54.7165 47.2151 52.4478 47.2151 52.2522C47.2151 51.9001 50.3411 46.9323 52.4251 43.8813C53.0764 42.9816 53.1198 43.0598 56.1156 47.5191C57.7654 50.0225 59.0679 52.2913 58.9811 52.5651ZM74.9585 57.4155C76.6083 59.919 78.0411 62.1095 78.0845 62.3051C78.1713 62.4616 75.6966 62.618 72.614 62.618H67.0132L63.9306 57.9241C62.1939 55.3424 60.8046 53.1127 60.8046 53.0345C60.8046 52.9172 63.3228 52.8389 66.3619 52.8389H71.9193L74.9585 57.4155ZM49.7333 57.8458L52.7725 62.4224L50.0806 66.5297C48.6044 68.7984 47.2151 70.8716 47.0414 71.1454C46.8243 71.4975 45.6521 70.0893 43.5681 66.9208L40.4855 62.2269L43.351 57.7285C44.9574 55.2641 46.3468 53.2301 46.477 53.2301C46.6073 53.2301 48.0834 55.3033 49.7333 57.8458ZM62.932 57.8849C64.6253 60.4666 66.0146 62.6963 66.0146 62.8918C66.0146 63.283 60.1967 72.006 59.9362 71.9669C59.7626 71.9669 57.4615 68.4464 54.596 63.7915L53.771 62.4224L56.7234 57.8458C58.3732 55.3033 59.7626 53.2301 59.7626 53.2301C59.806 53.2301 61.2387 55.3424 62.932 57.8849ZM78.1713 63.4004C78.1713 63.5177 76.9122 65.5518 75.3492 67.8988C73.7862 70.2849 72.5271 72.2798 72.5271 72.3971C72.5271 72.5145 69.8787 72.6318 66.6224 72.671C63.4096 72.7101 60.8046 72.6318 60.8914 72.4754C60.9782 72.3189 62.3676 70.1675 63.974 67.7032L66.9698 63.2048H72.5706C75.6532 63.2048 78.1713 63.283 78.1713 63.4004ZM56.7234 68.642C58.243 71.0281 59.4587 73.023 59.4152 73.1795C58.3298 75.2526 53.5974 82.098 53.3803 81.8633C53.2066 81.7069 51.9475 79.8293 50.5582 77.6779C49.2123 75.5265 47.9098 73.4924 47.6493 73.1404C47.3454 72.7101 47.9532 71.4192 50.2109 67.8988C52.3383 64.5347 53.25 63.4004 53.5105 63.8306C53.7276 64.1436 55.1604 66.295 56.7234 68.642ZM71.6588 73.5315C71.6588 73.6098 70.3563 75.722 68.7933 78.2255L65.8844 82.763H60.1099C56.8971 82.763 54.2921 82.7239 54.2921 82.7239C54.2921 82.6848 55.638 80.5725 57.3312 78.0299L60.327 73.3751H66.0146C69.0972 73.3751 71.6588 73.4533 71.6588 73.5315Z" fill="white"/>
<path d="M57.3313 44.5461C57.3313 45.3675 58.1128 46.189 58.9377 46.189C59.6324 46.189 59.6758 44.9372 58.9811 44.3114C58.1996 43.6073 57.3313 43.7246 57.3313 44.5461ZM58.6338 45.0155C58.6338 45.2111 58.547 45.4066 58.4601 45.4066C58.3299 45.4066 58.1128 45.2111 57.9826 45.0155C57.8523 44.7808 57.9391 44.6243 58.1562 44.6243C58.4167 44.6243 58.6338 44.7808 58.6338 45.0155Z" fill="white"/>
<path d="M62.9755 44.5461C62.9755 45.3675 63.757 46.189 64.5819 46.189C65.2766 46.189 65.32 44.9372 64.6253 44.3114C63.8438 43.6073 62.9755 43.7246 62.9755 44.5461ZM64.278 45.0155C64.278 45.2111 64.1911 45.4066 64.1043 45.4066C63.9741 45.4066 63.757 45.2111 63.6267 45.0155C63.4965 44.7808 63.5833 44.6243 63.8004 44.6243C64.0609 44.6243 64.278 44.7808 64.278 45.0155Z" fill="white"/>
<path d="M60.3705 49.2402C60.3705 50.3355 61.5427 51.1569 62.2374 50.5311C62.5847 50.2181 62.6282 49.9052 62.2808 49.3967C61.5862 48.4188 60.3705 48.3014 60.3705 49.2402ZM61.8901 49.7096C62.0203 49.9052 61.9335 50.1008 61.7164 50.1008C61.4559 50.1008 61.2388 49.9052 61.2388 49.7096C61.2388 49.4749 61.3257 49.3184 61.4125 49.3184C61.5427 49.3184 61.7598 49.4749 61.8901 49.7096Z" fill="white"/>
<path d="M66.0146 49.2402C66.0146 50.3355 67.1869 51.1569 67.8816 50.5311C68.2289 50.2181 68.2723 49.9052 67.925 49.3967C67.2303 48.4188 66.0146 48.3014 66.0146 49.2402ZM67.3172 49.7096C67.3172 49.9052 67.2303 50.1008 67.1435 50.1008C67.0132 50.1008 66.7962 49.9052 66.6659 49.7096C66.5357 49.4749 66.6225 49.3184 66.8396 49.3184C67.1001 49.3184 67.3172 49.4749 67.3172 49.7096Z" fill="white"/>
<path d="M52.4251 46.8147C51.9475 47.245 52.0778 48.8488 52.5554 49.1226C53.2935 49.5138 54.3355 48.4968 54.2052 47.5971C54.075 46.7756 52.9896 46.3062 52.4251 46.8147ZM53.4237 47.7927C53.4237 48.2229 53.2501 48.4968 52.9896 48.3403C52.7725 48.2229 52.6856 47.8709 52.8593 47.558C53.1632 46.7365 53.4237 46.8147 53.4237 47.7927Z" fill="white"/>
<path d="M49.3425 51.587C48.9518 52.6432 49.4728 53.6993 50.3411 53.5429C51.2963 53.3473 51.2963 51.1176 50.2977 50.9612C49.907 50.8829 49.4728 51.1568 49.3425 51.587ZM50.6016 52.0173C50.7319 52.2129 50.6451 52.4867 50.3846 52.6432C50.1675 52.7605 49.9504 52.6041 49.9504 52.2911C49.9504 51.587 50.2109 51.4697 50.6016 52.0173Z" fill="white"/>
<path d="M54.9434 51.7043C54.5526 52.7604 55.7683 54.0122 56.5064 53.3472C57.1576 52.7604 56.8103 51.1175 55.942 50.9611C55.5078 50.8828 55.117 51.1958 54.9434 51.7043ZM56.463 52.2519C56.463 52.5648 56.2893 52.8387 56.0288 52.8387C55.8117 52.8387 55.5946 52.5648 55.5946 52.2519C55.5946 51.939 55.8117 51.6652 56.0288 51.6652C56.2893 51.6652 56.463 51.939 56.463 52.2519Z" fill="white"/>
<path d="M55.5946 54.7946C55.2038 55.0293 55.1604 55.1858 55.4643 55.1858C55.7248 55.1858 56.1156 54.9902 56.2458 54.7946C56.5932 54.3252 56.4195 54.3252 55.5946 54.7946Z" fill="white"/>
<path d="M52.2949 55.7333C51.8608 56.7504 52.2949 57.7283 53.2067 57.7283C53.9014 57.7283 54.075 57.4545 54.075 56.5548C54.075 55.2639 52.7725 54.6381 52.2949 55.7333ZM53.2935 57.2198C53.1633 57.4936 53.0764 57.298 53.0764 56.7504C53.0764 56.2027 53.1633 56.0071 53.2935 56.2418C53.3803 56.5157 53.3803 56.9851 53.2935 57.2198Z" fill="white"/>
<path d="M64.278 55.1466C64.278 55.5378 64.5819 56.0854 64.9292 56.3592C65.841 57.0242 66.6225 56.3201 66.2317 55.2248C65.8844 54.1687 64.278 54.1296 64.278 55.1466ZM65.7541 55.4204C65.9278 55.8116 65.7975 55.968 65.4936 55.8898C64.8424 55.6942 64.495 54.7945 65.0595 54.7945C65.2765 54.7945 65.6239 55.0684 65.7541 55.4204Z" fill="white"/>
<path d="M69.488 54.8728C69.488 55.1858 69.7485 55.7725 70.0959 56.2028C70.834 57.1025 71.8325 56.5157 71.572 55.3422C71.3984 54.4817 69.488 54.0514 69.488 54.8728ZM71.2247 55.6161C71.2247 55.8116 71.051 55.9681 70.7905 55.9681C70.5735 55.9681 70.3564 55.6943 70.3564 55.3422C70.3564 55.0293 70.5735 54.8728 70.7905 54.9902C71.051 55.1075 71.2247 55.3814 71.2247 55.6161Z" fill="white"/>
<path d="M67.1001 59.0974C66.7527 59.645 67.6645 61.0532 68.4026 61.0532C69.3143 61.0532 69.5748 60.3882 69.0538 59.4886C68.5762 58.6671 67.5342 58.4324 67.1001 59.0974ZM68.6197 60.1144C68.6197 60.4274 68.446 60.5838 68.1855 60.4665C67.9684 60.3491 67.7513 60.0753 67.7513 59.8406C67.7513 59.645 67.9684 59.4886 68.1855 59.4886C68.446 59.4886 68.6197 59.7624 68.6197 60.1144Z" fill="white"/>
<path d="M72.7442 59.0974C72.3535 59.6841 72.8745 60.9359 73.656 61.2097C74.0033 61.327 74.394 61.1706 74.5677 60.7794C75.0453 59.6841 73.3955 58.1195 72.7442 59.0974ZM74.2638 60.31C74.2638 60.5056 74.0901 60.6621 73.8296 60.6621C73.6125 60.6621 73.3955 60.3882 73.3955 60.0362C73.3955 59.7233 73.6125 59.5668 73.8296 59.6841C74.0901 59.8015 74.2638 60.0753 74.2638 60.31Z" fill="white"/>
<path d="M45.6087 57.8848C45.6087 59.293 46.4336 59.8406 47.1283 58.9409C47.8664 58.0412 47.4322 56.7504 46.4336 56.7504C45.8258 56.7504 45.6087 57.0242 45.6087 57.8848ZM46.9112 57.9239C46.9112 58.3542 46.7375 58.7062 46.477 58.7062C46.26 58.7062 46.0429 58.3542 46.0429 57.9239C46.0429 57.4936 46.26 57.1416 46.477 57.1416C46.7375 57.1416 46.9112 57.4936 46.9112 57.9239Z" fill="white"/>
<path d="M42.6998 61.679C42.3959 62.4613 43.0905 63.5957 43.9155 63.5957C44.8706 63.5957 44.697 61.2878 43.7418 61.1314C43.3511 61.0531 42.8735 61.2878 42.6998 61.679ZM43.7418 62.696C43.6116 62.9698 43.5247 62.7743 43.5247 62.2266C43.5247 61.679 43.6116 61.4834 43.7418 61.7181C43.8286 61.9919 43.8286 62.4613 43.7418 62.696Z" fill="white"/>
<path d="M48.344 61.679C48.04 62.4613 48.7347 63.5957 49.5596 63.5957C50.5148 63.5957 50.3411 61.2878 49.386 61.1314C48.9952 61.0531 48.5176 61.2878 48.344 61.679ZM49.386 62.696C49.2557 62.9698 49.1689 62.7743 49.1689 62.2266C49.1689 61.679 49.2557 61.4834 49.386 61.7181C49.4728 61.9919 49.4728 62.4613 49.386 62.696Z" fill="white"/>
<path d="M45.9127 65.6298C45.3482 66.0992 45.6087 67.742 46.3034 67.9767C47.302 68.2897 47.9533 67.5073 47.6059 66.373C47.3454 65.3951 46.5205 65.043 45.9127 65.6298ZM46.9113 66.9597C46.9113 67.39 46.7376 67.6247 46.4771 67.5073C46.26 67.39 46.0429 66.9988 46.0429 66.6859C46.0429 66.373 46.26 66.1383 46.4771 66.1383C46.7376 66.1383 46.9113 66.4903 46.9113 66.9597Z" fill="white"/>
<path d="M59.1114 57.298C58.3733 58.1194 58.9377 59.4885 59.9797 59.4885C60.7178 59.4885 60.848 59.2538 60.7178 58.2368C60.5875 56.8286 59.8929 56.4374 59.1114 57.298ZM60.3705 58.0803C60.3705 58.3933 60.1968 58.7844 59.9363 58.9018C59.7192 59.0191 59.5021 58.7844 59.5021 58.3541C59.5021 57.8848 59.7192 57.5327 59.9363 57.5327C60.1968 57.5327 60.3705 57.7674 60.3705 58.0803Z" fill="white"/>
<path d="M58.1996 60.8184C58.1996 60.8967 58.5469 61.2096 58.9811 61.4834C59.6323 61.9919 59.6758 61.9528 59.1113 61.327C58.5469 60.7011 58.1996 60.5055 58.1996 60.8184Z" fill="white"/>
<path d="M56.3327 61.7183C55.8551 62.1095 55.9854 63.7132 56.5064 64.0262C57.2879 64.4173 58.3299 63.2047 57.9826 62.2659C57.7221 61.4445 56.8971 61.1707 56.3327 61.7183ZM57.3313 62.8136C57.3313 63.1265 57.2445 63.4003 57.1576 63.4003C57.0708 63.4003 56.8971 63.1265 56.7235 62.8136C56.5932 62.5006 56.68 62.2268 56.8971 62.2268C57.1576 62.2268 57.3313 62.5006 57.3313 62.8136Z" fill="white"/>
<path d="M61.8901 62.2659C61.5427 63.2047 62.5847 64.4173 63.3662 64.0262C63.6267 63.8697 63.8438 63.2438 63.8438 62.5789C63.8438 61.7183 63.6267 61.4445 63.0189 61.4445C62.5413 61.4445 62.0203 61.7965 61.8901 62.2659ZM63.4097 62.8527C63.4097 63.1656 63.236 63.4003 62.9755 63.4003C62.7584 63.4003 62.5413 63.0483 62.5413 62.5789C62.5413 62.1486 62.7584 61.9139 62.9755 62.0312C63.236 62.1486 63.4097 62.5398 63.4097 62.8527Z" fill="white"/>
<path d="M59.2416 66.2948C58.8509 67.1945 59.2416 68.2898 59.9797 68.4071C60.848 68.5636 61.2822 67.703 60.9349 66.5687C60.6744 65.6299 59.5889 65.4734 59.2416 66.2948ZM60.3704 67.351C60.3704 67.7813 60.1968 68.016 59.9363 67.8986C59.7192 67.7813 59.5021 67.3901 59.5021 67.0772C59.5021 66.7642 59.7192 66.5295 59.9363 66.5295C60.1968 66.5295 60.3704 66.8816 60.3704 67.351Z" fill="white"/>
<path d="M67.8381 64.6518C67.1869 65.2386 67.1435 66.4121 67.7513 66.725C68.446 67.1162 69.5314 66.0992 69.4011 65.2386C69.2275 64.2607 68.5328 64.026 67.8381 64.6518ZM68.967 65.4342C68.8801 65.6689 68.5328 65.9818 68.2723 66.06C67.9684 66.1383 67.8381 65.9818 68.0118 65.5906C68.3157 64.8865 69.2275 64.7301 68.967 65.4342Z" fill="white"/>
<path d="M73.2219 65.0039C72.5272 65.9427 72.7443 66.9207 73.656 66.9207C74.3941 66.9207 75.2625 65.4733 74.9585 64.7301C74.6112 63.9478 74.0034 64.0652 73.2219 65.0039ZM74.0902 66.021C73.656 66.4121 73.2653 65.8254 73.656 65.3169C73.9165 64.8866 74.0034 64.8866 74.177 65.3169C74.2639 65.5907 74.2205 65.9036 74.0902 66.021Z" fill="white"/>
<path d="M64.9727 69.5025C64.4951 70.5978 64.7122 71.2236 65.5371 71.2236C66.362 71.2236 66.883 70.5195 66.883 69.4243C66.883 68.6811 65.32 68.7202 64.9727 69.5025ZM66.2318 70.0501C66.1015 70.2457 65.7542 70.4413 65.5371 70.4413C65.2766 70.4413 65.2332 70.2457 65.3634 70.0501C65.4937 69.8154 65.841 69.659 66.0581 69.659C66.3186 69.659 66.362 69.8154 66.2318 70.0501Z" fill="white"/>
<path d="M70.3563 69.6199C69.7051 70.7542 69.8353 71.2236 70.7905 71.2236C71.7023 71.2236 72.7443 69.8937 72.3101 69.2678C71.8759 68.6419 70.8339 68.8375 70.3563 69.6199ZM71.6588 70.011C71.6588 70.2457 71.4852 70.5195 71.2247 70.6369C71.0076 70.7542 70.7905 70.5978 70.7905 70.2848C70.7905 69.9328 71.0076 69.659 71.2247 69.659C71.4852 69.659 71.6588 69.8154 71.6588 70.011Z" fill="white"/>
<path d="M52.3384 68.1334C51.991 69.0722 53.033 70.2848 53.8145 69.8936C54.075 69.7371 54.2921 69.1113 54.2921 68.4463C54.2921 67.5857 54.075 67.3119 53.4672 67.3119C52.9896 67.3119 52.4686 67.664 52.3384 68.1334ZM53.858 68.7201C53.858 69.033 53.6843 69.2677 53.4238 69.2677C53.2067 69.2677 52.9896 68.9157 52.9896 68.4463C52.9896 68.016 53.2067 67.7813 53.4238 67.8987C53.6843 68.016 53.858 68.4072 53.858 68.7201Z" fill="white"/>
<path d="M49.6899 72.1622C49.2992 73.101 49.6899 74.1571 50.4714 74.2745C51.2963 74.4309 51.991 72.788 51.47 72.0448C51.0793 71.419 49.9504 71.5363 49.6899 72.1622ZM50.6451 73.453C50.1675 73.8833 49.907 73.2966 50.2543 72.5534C50.5583 71.8493 50.6017 71.8493 50.7319 72.5142C50.8188 72.9054 50.7753 73.3357 50.6451 73.453Z" fill="white"/>
<path d="M55.4644 71.8885C54.8999 72.3579 55.1604 74.0008 55.8551 74.2355C56.8537 74.5485 57.505 73.7661 57.1576 72.6318C56.8971 71.6538 56.0722 71.3018 55.4644 71.8885ZM56.463 72.8273C56.463 73.2576 56.2893 73.5314 56.0288 73.375C55.8117 73.2576 55.7249 72.9056 55.8985 72.5926C56.2025 71.7712 56.463 71.8494 56.463 72.8273Z" fill="white"/>
<path d="M52.4252 76.6606C52.1647 77.5211 52.8159 78.6555 53.5974 78.6555C54.2921 78.6555 54.7697 77.2864 54.4223 76.465C54.075 75.6827 52.6857 75.8 52.4252 76.6606ZM53.8579 77.2864C53.8579 77.5994 53.6842 77.8732 53.4237 77.8732C53.2067 77.8732 52.9896 77.5994 52.9896 77.2864C52.9896 76.9735 53.2067 76.6997 53.4237 76.6997C53.6842 76.6997 53.8579 76.9735 53.8579 77.2864Z" fill="white"/>
<path d="M61.0217 75.5262C60.5875 76.778 61.5427 77.5212 62.3676 76.5041C63.1057 75.6045 62.9754 74.9786 62.0203 74.8221C61.5861 74.7439 61.1953 75.0568 61.0217 75.5262ZM62.1071 75.7218C62.1071 76.0348 61.9334 76.3086 61.6729 76.3086C61.4558 76.3086 61.369 76.0348 61.4993 75.7218C61.6729 75.4089 61.8466 75.1351 61.9334 75.1351C62.0203 75.1351 62.1071 75.4089 62.1071 75.7218Z" fill="white"/>
<path d="M66.6659 75.5654C66.2751 76.6607 67.0566 77.3648 67.9684 76.6998C68.3157 76.426 68.6196 75.8783 68.6196 75.4872C68.6196 74.4701 67.0132 74.5093 66.6659 75.5654ZM67.9684 75.4872C68.0986 75.6828 68.0118 75.9566 67.7513 76.113C67.5342 76.2304 67.3171 76.0739 67.3171 75.761C67.3171 75.0569 67.5776 74.9395 67.9684 75.4872Z" fill="white"/>
<path d="M61.673 77.8732C61.2822 78.1079 61.2388 78.2644 61.5427 78.2644C61.8032 78.2644 62.194 78.0688 62.3242 77.8732C62.6715 77.4038 62.4979 77.4038 61.673 77.8732Z" fill="white"/>
<path d="M58.1996 79.6336C57.5918 80.2986 57.7654 81.4721 58.5035 81.6677C59.1548 81.8632 60.0665 80.3377 59.7626 79.5945C59.4587 78.8904 58.8943 78.8904 58.1996 79.6336ZM58.8943 80.8853C58.4601 81.2765 58.0694 80.6897 58.4601 80.1812C58.7206 79.7509 58.8075 79.7509 58.9811 80.1812C59.068 80.455 59.0245 80.768 58.8943 80.8853Z" fill="white"/>
<path d="M64.0609 79.6727C63.236 80.416 63.4097 81.1592 64.4082 81.3156C65.1463 81.4721 66.1883 80.0248 65.7976 79.4381C65.4068 78.8904 64.8858 78.9687 64.0609 79.6727ZM65.1463 80.1813C65.1463 80.416 64.9727 80.6898 64.7122 80.8071C64.4951 80.9245 64.278 80.768 64.278 80.4551C64.278 80.103 64.4951 79.8292 64.7122 79.8292C64.9727 79.8292 65.1463 79.9857 65.1463 80.1813Z" fill="white"/>
<path d="M47.0849 45.4459C46.9546 45.6806 46.998 46.0326 47.2151 46.2282C47.4322 46.4238 47.6059 46.2673 47.6059 45.7979C47.6059 44.8982 47.519 44.8591 47.0849 45.4459Z" fill="white"/>
<path d="M15.0432 48.4578C14.913 48.6533 15.0867 48.8098 15.434 48.8098C15.7813 48.8098 15.955 48.6533 15.8247 48.4578C15.6945 48.3013 15.5208 48.1448 15.434 48.1448C15.3472 48.1448 15.1735 48.3013 15.0432 48.4578Z" fill="white"/>
<path d="M84.684 57.6893C84.684 57.7675 85.0313 58.0805 85.4655 58.3543C86.1167 58.8628 86.1601 58.8237 85.5957 58.1978C85.0313 57.5719 84.684 57.3764 84.684 57.6893Z" fill="white"/>
<path d="M107.738 58.0412C107.391 58.4324 107.434 58.5889 107.825 58.5889C108.172 58.5889 108.433 58.3542 108.433 58.0412C108.433 57.7674 108.389 57.5327 108.346 57.5327C108.259 57.5327 107.999 57.7674 107.738 58.0412Z" fill="white"/>
<path d="M111.429 64.0652C111.168 64.6129 111.212 64.652 111.646 64.2999C111.95 64.0261 112.08 63.7132 111.95 63.5958C111.819 63.4785 111.559 63.6741 111.429 64.0652Z" fill="white"/>
<path d="M110.995 66.4514C110.908 66.6078 110.951 66.999 111.168 67.3119C111.472 67.7422 111.559 67.664 111.472 66.999C111.429 66.0602 111.342 65.982 110.995 66.4514Z" fill="white"/>
<path d="M26.2014 71.693C25.9843 71.9668 24.4647 74.2746 22.8583 76.8172C20.8611 79.8683 19.9927 81.6285 20.2098 82.0979C20.3401 82.45 21.8597 84.9143 23.5963 87.5742L26.6789 92.3464L33.2349 92.2682L39.7474 92.1509L42.9169 87.1048C44.6535 84.3276 46.0429 81.8632 45.956 81.6285C45.8692 81.3938 44.3496 78.9686 42.5695 76.2305L39.3133 71.2236H32.9744C28.3722 71.2236 26.5053 71.3409 26.2014 71.693ZM40.4421 74.4702C41.3104 75.8002 42.6564 77.9125 43.4379 79.1251L44.8272 81.3938H39.2264H33.6691L30.5865 76.6999L27.4604 72.0059H33.1915L38.8791 72.045L40.4421 74.4702ZM30.0655 77.3257L32.8876 81.6676L30.022 86.2443C28.459 88.7477 27.0697 90.7818 26.9394 90.7818C26.5921 90.7818 20.7742 81.785 20.9479 81.4329C21.6426 79.9074 26.7658 72.4753 26.9829 72.71C27.1131 72.8664 28.5024 74.9396 30.0655 77.3257ZM44.7404 82.3717C44.7404 82.4891 43.4379 84.6014 41.8748 87.0657L38.9659 91.5641H33.4086C30.326 91.5641 27.8078 91.4859 27.8078 91.3685C27.8078 91.2903 28.5893 90.0386 29.5445 88.6695C30.4562 87.2613 31.7587 85.2272 32.3666 84.1711L33.452 82.1762H39.0962C42.2222 82.1762 44.7404 82.2544 44.7404 82.3717Z" fill="white"/>
<path d="M30.847 73.727C30.847 74.8223 31.368 75.5264 32.1929 75.5264C33.1481 75.5264 33.3217 74.392 32.4968 73.6488C31.8022 73.0229 30.847 73.062 30.847 73.727ZM32.3666 74.3529C32.4968 74.5485 32.4534 74.744 32.1929 74.744C31.9758 74.744 31.6285 74.5485 31.4982 74.3529C31.368 74.1182 31.4114 73.9617 31.6719 73.9617C31.889 73.9617 32.2363 74.1182 32.3666 74.3529Z" fill="white"/>
<path d="M36.4911 73.727C36.4911 74.8223 37.0122 75.5264 37.8371 75.5264C38.7922 75.5264 38.9659 74.392 38.141 73.6488C37.4463 73.0229 36.4911 73.062 36.4911 73.727ZM38.0107 74.3529C38.141 74.5485 38.0976 74.744 37.8371 74.744C37.62 74.744 37.2727 74.5485 37.1424 74.3529C37.0122 74.1182 37.0556 73.9617 37.3161 73.9617C37.5332 73.9617 37.8805 74.1182 38.0107 74.3529Z" fill="white"/>
<path d="M33.8862 78.6166C33.8862 79.0077 34.1901 79.5554 34.5374 79.8292C35.4492 80.4942 36.2307 79.7901 35.8399 78.6948C35.4926 77.6387 33.8862 77.5995 33.8862 78.6166ZM35.1887 79.0468C35.1887 79.2424 35.1018 79.438 35.015 79.438C34.8848 79.438 34.6677 79.2424 34.5374 79.0468C34.4072 78.8121 34.494 78.6557 34.7111 78.6557C34.9716 78.6557 35.1887 78.8121 35.1887 79.0468Z" fill="white"/>
<path d="M39.5304 78.5773C39.5304 79.3988 40.3119 80.2202 41.1368 80.2202C41.8315 80.2202 41.8749 78.9685 41.1802 78.3426C40.3987 77.6385 39.5304 77.7559 39.5304 78.5773ZM41.05 79.0467C41.1802 79.2423 41.1368 79.4379 40.8763 79.4379C40.6592 79.4379 40.3119 79.2423 40.1816 79.0467C40.0514 78.812 40.0948 78.6556 40.3553 78.6556C40.5724 78.6556 40.9197 78.812 41.05 79.0467Z" fill="white"/>
<path d="M25.8106 76.465C25.3764 77.482 25.8106 78.46 26.7224 78.46C27.417 78.46 27.5907 78.1861 27.5907 77.2865C27.5907 75.9956 26.2882 75.3698 25.8106 76.465ZM26.8092 77.5603C26.679 77.8732 26.5487 77.7559 26.5487 77.3256C26.5053 76.8953 26.6355 76.6606 26.7658 76.8171C26.896 76.9344 26.9395 77.2865 26.8092 77.5603Z" fill="white"/>
<path d="M23.3358 80.4942C23.1622 80.6115 23.0319 81.2374 23.0319 81.8632C23.0319 82.6847 23.249 82.9585 23.8568 82.9585C24.8988 82.9585 25.333 81.9806 24.7686 80.9636C24.291 80.1812 23.8134 80.0248 23.3358 80.4942ZM24.3344 81.785C24.3344 82.2153 24.1608 82.5673 23.9003 82.5673C23.6832 82.5673 23.4661 82.2153 23.4661 81.785C23.4661 81.3547 23.6832 81.0027 23.9003 81.0027C24.1608 81.0027 24.3344 81.3547 24.3344 81.785Z" fill="white"/>
<path d="M28.9801 80.455C28.8064 80.6115 28.6761 81.2374 28.6761 81.8632C28.6761 82.7238 28.8932 82.9585 29.5879 82.9585C30.326 82.9585 30.4562 82.7629 30.326 81.7068C30.1957 80.4942 29.5879 79.9465 28.9801 80.455ZM29.9787 81.5894C29.9787 81.9024 29.805 82.1762 29.5445 82.1762C29.3274 82.1762 29.1103 81.9024 29.1103 81.5894C29.1103 81.2765 29.3274 81.0027 29.5445 81.0027C29.805 81.0027 29.9787 81.2765 29.9787 81.5894Z" fill="white"/>
<path d="M25.7672 85.5401C25.4633 86.3224 26.1579 87.4568 26.9829 87.4568C27.938 87.4568 27.7644 85.1489 26.8092 84.9925C26.4184 84.9142 25.9408 85.1489 25.7672 85.5401ZM27.0263 86.5571C26.6355 86.9092 26.5053 86.8309 26.5053 86.0877C26.5053 85.3445 26.6355 85.2663 27.0263 85.6183C27.417 85.9704 27.417 86.2051 27.0263 86.5571Z" fill="white"/>
<path d="M107.217 72.6709C106.653 73.2968 106.696 73.3359 107.391 72.8274C107.782 72.5536 108.129 72.2407 108.129 72.1624C108.129 71.8495 107.782 72.0451 107.217 72.6709Z" fill="white"/>
<path d="M72.1364 79.3206C63.0189 93.1678 61.2388 95.9842 61.2388 96.3363C61.2388 96.571 62.8018 99.2309 64.7555 102.204L68.2723 107.602L75.0019 107.524L81.7315 107.406L88.4177 97.0404C92.0647 91.3294 95.0605 86.4789 95.0605 86.2051C95.1039 85.9313 93.4975 83.3496 91.5437 80.4159L87.9401 75.1352H81.4276H74.8717L72.1364 79.3206ZM89.8939 79.5162C91.1964 81.5111 92.716 83.7017 93.237 84.4058L94.1922 85.6966H88.3743H82.5565L79.3002 80.807L76.0439 75.9175H81.775H87.506L89.8939 79.5162ZM78.6055 81.3156C80.2988 83.9755 81.6447 86.2442 81.5579 86.4007C80.95 87.6524 75.74 95.4757 75.5229 95.4757C75.3927 95.4757 74.0902 93.6764 72.6574 91.4467C71.2247 89.2562 69.8353 87.0657 69.488 86.5963C68.967 85.8531 69.1841 85.3837 72.0496 81.0026C73.7862 78.4209 75.3058 76.3087 75.3493 76.3869C75.4361 76.4651 76.8688 78.6556 78.6055 81.3156ZM69.0538 87.2221C69.0538 87.3786 70.3997 89.5691 72.0496 92.0335L75.0888 96.571L72.2667 100.835C70.7471 103.143 69.3577 105.372 69.2275 105.724C69.0972 106.115 68.8801 106.428 68.7065 106.428C68.446 106.389 62.5413 97.5489 62.1939 96.6492C61.9769 96.1407 68.3157 86.4789 68.7065 86.7136C68.8801 86.831 69.0538 87.0657 69.0538 87.2221ZM93.7146 86.831C93.6712 87.0266 92.3253 89.2171 90.7622 91.7205L87.9401 96.258H82.2091C79.0397 96.258 76.4347 96.1798 76.4347 96.0625C76.4347 95.9842 76.9991 95.0454 77.6503 94.0284C78.345 93.0114 79.6909 90.86 80.7329 89.2953L82.5565 86.4789H88.2006C91.4569 86.4789 93.8014 86.6354 93.7146 86.831ZM86.7679 97.9009C86.4206 98.4094 84.9878 100.6 83.6419 102.79L81.1237 106.819H75.2624C72.0496 106.819 69.488 106.702 69.5748 106.507C69.6616 106.35 71.051 104.16 72.7442 101.617L75.74 97.0404H81.5579H87.3757L86.7679 97.9009Z" fill="white"/>
<path d="M79.9515 77.443C79.4305 77.756 79.4305 77.9515 80.0818 78.8512C80.8199 79.8682 81.6448 79.9856 81.9487 79.1641C82.2092 78.4601 80.6028 77.0519 79.9515 77.443ZM81.2106 78.6948C81.2106 78.9294 81.0369 78.9686 80.7764 78.8512C80.5593 78.7339 80.3423 78.4209 80.3423 78.2254C80.3423 77.9907 80.5593 77.9515 80.7764 78.0689C81.0369 78.1862 81.2106 78.4992 81.2106 78.6948Z" fill="white"/>
<path d="M85.118 77.9124C85.118 78.6947 86.0298 79.8291 86.6376 79.8291C87.5494 79.8291 87.8099 79.1641 87.2889 78.2644C86.8113 77.443 85.118 77.1692 85.118 77.9124ZM86.8547 78.6947C86.8547 78.8903 86.681 79.0468 86.4205 79.0468C86.2035 79.0468 85.9864 78.773 85.9864 78.4209C85.9864 78.108 86.2035 77.9515 86.4205 78.0689C86.681 78.1862 86.8547 78.46 86.8547 78.6947Z" fill="white"/>
<path d="M82.7302 82.1762C82.3394 82.7238 83.2946 84.5232 83.9893 84.5232C84.901 84.5232 85.2049 83.8582 84.7274 82.9977C84.2064 82.1371 83.0775 81.6677 82.7302 82.1762ZM84.2498 83.3888C84.2498 83.6235 84.0761 83.6626 83.8156 83.5453C83.5985 83.4279 83.3814 83.115 83.3814 82.9194C83.3814 82.6847 83.5985 82.6456 83.8156 82.763C84.0761 82.8803 84.2498 83.1932 84.2498 83.3888Z" fill="white"/>
<path d="M88.4178 82.489C88.2875 82.7237 88.5481 83.3105 88.9822 83.7799C89.6769 84.5622 89.9374 84.6404 90.415 84.2102C90.8057 83.8581 90.8491 83.5452 90.5018 83.0367C89.9374 82.2543 88.8086 81.9805 88.4178 82.489ZM89.894 83.3887C89.894 83.6234 89.7203 83.6625 89.4598 83.5452C89.2427 83.4278 89.0256 83.1149 89.0256 82.9193C89.0256 82.6846 89.2427 82.6455 89.4598 82.7629C89.7203 82.8802 89.894 83.1931 89.894 83.3887Z" fill="white"/>
<path d="M74.4374 80.768C74.0033 81.785 74.4374 82.7629 75.3492 82.7629C76.0439 82.7629 76.2175 82.4891 76.2175 81.5894C76.2175 80.2986 74.915 79.6727 74.4374 80.768ZM75.436 81.8633C75.3058 82.1762 75.1755 82.0588 75.1755 81.6286C75.1321 81.1983 75.2624 80.9636 75.3926 81.12C75.5229 81.2374 75.5663 81.5894 75.436 81.8633Z" fill="white"/>
<path d="M71.7457 84.9925C71.051 85.6183 71.0944 86.6745 71.7891 87.183C72.6574 87.848 73.4823 87.1048 73.3087 85.8922C73.1784 84.6404 72.5272 84.2884 71.7457 84.9925ZM72.9613 86.3224C72.9613 86.6354 72.7877 86.8701 72.5272 86.8701C72.3101 86.8701 72.093 86.518 72.093 86.0486C72.093 85.6183 72.3101 85.3836 72.5272 85.501C72.7877 85.6183 72.9613 86.0095 72.9613 86.3224Z" fill="white"/>
<path d="M77.8674 84.7969C77.1293 85.0316 77.1727 87.1439 77.9108 87.3786C78.6489 87.6524 79.4738 86.9483 79.4738 86.0487C79.4738 85.2663 78.5621 84.5622 77.8674 84.7969ZM78.6055 86.166C78.6055 86.7919 78.4753 86.9092 78.1279 86.5963C77.8674 86.3616 77.7806 85.9704 77.9108 85.7357C78.3884 85.0708 78.6055 85.2272 78.6055 86.166Z" fill="white"/>
<path d="M74.481 89.6083C73.96 90.3906 74.6546 92.0335 75.4795 91.877C76.4781 91.7206 76.5216 89.4909 75.4795 89.2953C75.0888 89.2171 74.6546 89.3736 74.481 89.6083ZM75.7401 90.5862C75.8703 90.8991 75.7835 91.1729 75.5664 91.1729C75.3059 91.1729 75.1322 90.8991 75.1322 90.5862C75.1322 90.2732 75.219 89.9994 75.3059 89.9994C75.3927 89.9994 75.5664 90.2732 75.7401 90.5862Z" fill="white"/>
<path d="M67.4474 91.4075C67.1 92.1898 67.8381 93.3242 68.663 93.3242C69.0104 93.3242 69.3143 92.8157 69.4011 92.0334C69.5314 90.9772 69.4011 90.7817 68.6196 90.7817C68.142 90.7817 67.621 91.0555 67.4474 91.4075ZM68.7064 92.4245C68.3157 92.7766 68.1854 92.6984 68.1854 91.9551C68.1854 91.2119 68.3157 91.1337 68.7064 91.4857C69.0972 91.8378 69.0972 92.0725 68.7064 92.4245Z" fill="white"/>
<path d="M64.4517 96.1016C64.1478 97.1969 65.1463 98.4877 65.9713 98.0575C66.6225 97.7054 66.5791 96.1408 65.9278 95.554C65.1463 94.8499 64.7556 94.9673 64.4517 96.1016ZM65.7108 96.4537C65.8844 96.7666 65.7976 97.1187 65.5805 97.236C65.32 97.3925 65.1463 97.1187 65.1463 96.6884C65.1463 95.7105 65.4068 95.6322 65.7108 96.4537Z" fill="white"/>
<path d="M70.8339 95.4366C70.53 95.6322 70.3563 96.258 70.4431 96.8839C70.6168 98.4094 72.2666 98.4877 72.4403 97.0012C72.5706 95.8669 71.7022 94.9672 70.8339 95.4366ZM71.5286 97.1186C71.3983 97.3924 71.3115 97.1968 71.3115 96.6492C71.3115 96.1016 71.3983 95.906 71.5286 96.1407C71.6154 96.4145 71.6154 96.8839 71.5286 97.1186Z" fill="white"/>
<path d="M67.4908 100.717C67.1869 101.891 67.9684 102.947 68.8801 102.634C69.7919 102.321 69.488 100.013 68.5328 99.8568C68.0118 99.7785 67.7079 100.052 67.4908 100.717ZM68.7499 101.148C68.9235 101.461 68.8367 101.813 68.6196 101.93C68.3591 102.086 68.1855 101.813 68.1855 101.382C68.1855 100.404 68.446 100.326 68.7499 101.148Z" fill="white"/>
<path d="M83.4683 88.1219C82.817 88.7086 82.7736 89.8821 83.3814 90.195C84.0761 90.5862 85.1181 89.6083 85.1181 88.5913C85.1181 87.5742 84.2932 87.3787 83.4683 88.1219ZM84.4234 89.0215C84.2498 89.3345 83.9893 89.6083 83.7722 89.6083C83.5985 89.6083 83.5117 89.3345 83.6419 89.0215C83.8156 88.7086 84.0761 88.4348 84.2932 88.4348C84.4668 88.4348 84.5537 88.7086 84.4234 89.0215Z" fill="white"/>
<path d="M88.6349 88.513C88.4178 89.0607 88.4178 89.6083 88.7217 89.9212C89.0691 90.3515 89.3296 90.2733 90.0242 89.6474C90.9794 88.826 90.7623 87.6525 89.6769 87.6525C89.2861 87.6525 88.852 88.0436 88.6349 88.513ZM89.5466 89.2954C89.2427 89.5692 89.0256 89.6083 89.0256 89.3736C89.0256 89.1389 89.1559 88.826 89.3296 88.7086C89.4598 88.5522 89.7203 88.513 89.8506 88.6304C89.9374 88.7477 89.8071 89.0607 89.5466 89.2954Z" fill="white"/>
<path d="M80.8632 92.8158C80.2554 93.3634 80.1685 94.5369 80.733 94.889C81.2974 95.2019 82.5999 93.9502 82.4262 93.207C82.2526 92.4246 81.5145 92.2291 80.8632 92.8158ZM81.2974 93.9893C80.9935 94.2631 80.7764 94.3022 80.7764 94.0675C80.7764 93.8328 80.9066 93.5199 81.0803 93.4026C81.2105 93.2461 81.471 93.207 81.6013 93.3243C81.6881 93.4417 81.5579 93.7546 81.2974 93.9893Z" fill="white"/>
<path d="M86.0733 92.8159C85.5088 93.3244 85.3786 94.4196 85.8128 94.8108C86.3772 95.3193 87.7231 94.2632 87.7231 93.3244C87.7231 92.2682 86.9416 92.0335 86.0733 92.8159ZM87.2889 93.4808C87.2889 93.7155 87.1153 93.9893 86.8548 94.1067C86.6377 94.224 86.4206 94.0676 86.4206 93.7546C86.4206 93.4026 86.6377 93.1288 86.8548 93.1288C87.1153 93.1288 87.2889 93.2853 87.2889 93.4808Z" fill="white"/>
<path d="M76.6952 98.8397C75.9137 99.5438 75.7834 100.404 76.4347 100.756C77.0859 101.108 78.1714 100.209 78.1714 99.3482C78.1714 98.3312 77.4767 98.0965 76.6952 98.8397ZM77.3899 99.8567C77.0859 100.131 76.8689 100.17 76.8689 99.935C76.8689 99.7003 76.9991 99.3873 77.1728 99.27C77.303 99.1135 77.5635 99.0744 77.6938 99.1918C77.7806 99.3091 77.6504 99.622 77.3899 99.8567Z" fill="white"/>
<path d="M82.1657 98.7223C81.2974 99.7393 81.254 100.091 81.8184 100.522C82.296 100.874 82.5999 100.835 83.1209 100.365C83.5116 100.013 83.8156 99.5046 83.8156 99.1917C83.8156 98.4876 82.6867 98.1747 82.1657 98.7223ZM82.5999 99.8567C82.296 100.131 82.0789 100.17 82.0789 99.9349C82.0789 99.7002 82.2091 99.3873 82.3828 99.27C82.513 99.1135 82.7736 99.0744 82.9038 99.1917C82.9906 99.3091 82.8604 99.622 82.5999 99.8567Z" fill="white"/>
<path d="M73.8731 103.651C73.135 104.824 73.3086 105.333 74.3941 105.176C75.0887 105.098 75.3492 104.785 75.3492 104.12C75.3492 102.908 74.4809 102.634 73.8731 103.651ZM74.8716 104.277C74.698 104.59 74.5243 104.864 74.4375 104.864C74.3506 104.864 74.2638 104.59 74.2638 104.277C74.2638 103.964 74.4375 103.69 74.698 103.69C74.9151 103.69 75.0019 103.964 74.8716 104.277Z" fill="white"/>
<path d="M79.0831 103.768C78.866 104.316 78.866 104.864 79.17 105.177C79.5173 105.607 79.7778 105.529 80.4725 104.903C81.4276 104.081 81.2106 102.908 80.1251 102.908C79.7344 102.908 79.3002 103.299 79.0831 103.768ZM79.9949 104.551C79.691 104.825 79.4739 104.864 79.4739 104.629C79.4739 104.394 79.6041 104.081 79.7778 103.964C79.9081 103.808 80.1686 103.768 80.2988 103.886C80.3856 104.003 80.2554 104.316 79.9949 104.551Z" fill="white"/>
<path d="M95.9723 83.8973C95.9723 83.9755 96.3196 84.2885 96.7538 84.5623C97.405 85.0708 97.4485 85.0317 96.884 84.4058C96.3196 83.7799 95.9723 83.5844 95.9723 83.8973Z" fill="white"/>
<path d="M64.4517 86.1268C64.3214 86.3615 64.3649 86.7135 64.5819 86.9091C64.799 87.1047 64.9727 86.9482 64.9727 86.4788C64.9727 85.5791 64.8859 85.54 64.4517 86.1268Z" fill="white"/>
</svg>
